<mxfile host="app.diagrams.net" modified="2023-09-20T00:56:06.402Z" agent="Mozilla/5.0 (Windows NT 10.0; Win64; x64) AppleWebKit/537.36 (KHTML, like Gecko) Chrome/116.0.0.0 Safari/537.36" etag="lZAIbzGhOfnAPGD3SRgB" version="21.7.5" type="github">
  <diagram name="Page-1" id="2cc2dc42-3aac-f2a9-1cec-7a8b7cbee084">
    <mxGraphModel dx="1434" dy="790" grid="1" gridSize="10" guides="1" tooltips="1" connect="1" arrows="1" fold="1" page="1" pageScale="1" pageWidth="1100" pageHeight="850" background="#ffffff" math="0" shadow="0">
      <root>
        <mxCell id="0" />
        <mxCell id="1" parent="0" />
        <mxCell id="7026571954dc6520-1" value="|" style="strokeWidth=1;shadow=0;dashed=0;align=center;html=1;shape=mxgraph.mockup.containers.browserWindow;rSize=0;strokeColor=none;mainText=,;recursiveResize=0;rounded=0;labelBackgroundColor=none;fontFamily=Verdana;fontSize=12;fillColor=none;rotation=0;" parent="1" vertex="1">
          <mxGeometry x="860" y="240" width="1240" height="960" as="geometry" />
        </mxCell>
        <mxCell id="7026571954dc6520-2" value="Page 1" style="strokeWidth=1;shadow=0;dashed=0;align=center;html=1;shape=mxgraph.mockup.containers.anchor;fontSize=17;fontColor=#666666;align=left;" parent="7026571954dc6520-1" vertex="1">
          <mxGeometry x="60" y="12" width="110" height="26" as="geometry" />
        </mxCell>
        <mxCell id="7026571954dc6520-3" value="https://www.default.com" style="strokeWidth=1;shadow=0;dashed=0;align=center;html=1;shape=mxgraph.mockup.containers.anchor;rSize=0;fontSize=17;fontColor=#666666;align=left;" parent="7026571954dc6520-1" vertex="1">
          <mxGeometry x="130" y="60" width="250" height="26" as="geometry" />
        </mxCell>
        <mxCell id="7026571954dc6520-15" value="" style="verticalLabelPosition=bottom;shadow=0;dashed=0;align=center;html=1;verticalAlign=top;strokeWidth=1;shape=mxgraph.mockup.markup.line;strokeColor=#999999;rounded=0;labelBackgroundColor=none;fillColor=#ffffff;fontFamily=Verdana;fontSize=12;fontColor=#000000;" parent="7026571954dc6520-1" vertex="1">
          <mxGeometry y="150" width="1240" height="20" as="geometry" />
        </mxCell>
        <mxCell id="xlAAXu3U_xotaFrvBBW6-9" value="" style="strokeWidth=1;shadow=0;dashed=0;align=center;html=1;shape=mxgraph.mockup.forms.searchBox;strokeColor=none;mainText=;strokeColor2=#008cff;fontColor=#666666;fontSize=17;align=left;spacingLeft=3;rounded=0;labelBackgroundColor=none;fillColor=none;" vertex="1" parent="7026571954dc6520-1">
          <mxGeometry x="1010" y="120" width="20" height="30" as="geometry" />
        </mxCell>
        <mxCell id="xlAAXu3U_xotaFrvBBW6-12" value="" style="image;html=1;image=img/lib/atlassian/Bitbucket_Logo.svg;align=center;" vertex="1" parent="7026571954dc6520-1">
          <mxGeometry x="470" y="115" width="40" height="40" as="geometry" />
        </mxCell>
        <mxCell id="xlAAXu3U_xotaFrvBBW6-15" value="nissa motors" style="rounded=0;whiteSpace=wrap;html=1;fontSize=25;fontStyle=1;fontColor=#3399FF;" vertex="1" parent="7026571954dc6520-1">
          <mxGeometry x="520" y="115" width="170" height="40" as="geometry" />
        </mxCell>
        <mxCell id="xlAAXu3U_xotaFrvBBW6-16" value="" style="rounded=0;whiteSpace=wrap;html=1;" vertex="1" parent="7026571954dc6520-1">
          <mxGeometry x="40" y="190" width="220" height="340" as="geometry" />
        </mxCell>
        <mxCell id="xlAAXu3U_xotaFrvBBW6-57" value="" style="rounded=0;whiteSpace=wrap;html=1;" vertex="1" parent="7026571954dc6520-1">
          <mxGeometry x="340" y="190" width="220" height="340" as="geometry" />
        </mxCell>
        <mxCell id="xlAAXu3U_xotaFrvBBW6-58" value="" style="rounded=0;whiteSpace=wrap;html=1;" vertex="1" parent="7026571954dc6520-1">
          <mxGeometry x="680" y="200" width="220" height="340" as="geometry" />
        </mxCell>
        <mxCell id="xlAAXu3U_xotaFrvBBW6-59" value="" style="rounded=0;whiteSpace=wrap;html=1;" vertex="1" parent="7026571954dc6520-1">
          <mxGeometry x="970" y="200" width="220" height="340" as="geometry" />
        </mxCell>
        <mxCell id="xlAAXu3U_xotaFrvBBW6-61" value="" style="sketch=0;outlineConnect=0;fontColor=#232F3E;gradientColor=none;fillColor=#ED7100;strokeColor=none;dashed=0;verticalLabelPosition=bottom;verticalAlign=top;align=center;html=1;fontSize=12;fontStyle=0;aspect=fixed;pointerEvents=1;shape=mxgraph.aws4.ec2_im4gn_instance;" vertex="1" parent="7026571954dc6520-1">
          <mxGeometry x="90" y="230" width="130" height="130" as="geometry" />
        </mxCell>
        <mxCell id="xlAAXu3U_xotaFrvBBW6-62" value="" style="sketch=0;outlineConnect=0;fontColor=#232F3E;gradientColor=none;fillColor=#ED7100;strokeColor=none;dashed=0;verticalLabelPosition=bottom;verticalAlign=top;align=center;html=1;fontSize=12;fontStyle=0;aspect=fixed;pointerEvents=1;shape=mxgraph.aws4.ec2_im4gn_instance;" vertex="1" parent="7026571954dc6520-1">
          <mxGeometry x="390" y="230" width="130" height="130" as="geometry" />
        </mxCell>
        <mxCell id="xlAAXu3U_xotaFrvBBW6-63" value="" style="sketch=0;outlineConnect=0;fontColor=#232F3E;gradientColor=none;fillColor=#ED7100;strokeColor=none;dashed=0;verticalLabelPosition=bottom;verticalAlign=top;align=center;html=1;fontSize=12;fontStyle=0;aspect=fixed;pointerEvents=1;shape=mxgraph.aws4.ec2_im4gn_instance;" vertex="1" parent="7026571954dc6520-1">
          <mxGeometry x="730" y="230" width="130" height="130" as="geometry" />
        </mxCell>
        <mxCell id="xlAAXu3U_xotaFrvBBW6-64" value="" style="sketch=0;outlineConnect=0;fontColor=#232F3E;gradientColor=none;fillColor=#ED7100;strokeColor=none;dashed=0;verticalLabelPosition=bottom;verticalAlign=top;align=center;html=1;fontSize=12;fontStyle=0;aspect=fixed;pointerEvents=1;shape=mxgraph.aws4.ec2_im4gn_instance;" vertex="1" parent="7026571954dc6520-1">
          <mxGeometry x="1020" y="230" width="130" height="130" as="geometry" />
        </mxCell>
        <mxCell id="xlAAXu3U_xotaFrvBBW6-65" value="Lorem ipsum dolor sit amet consectetur adipiscing elit praesent mus, taciti mauris neque euismod suscipit quam dignissim cursus" style="rounded=0;whiteSpace=wrap;html=1;strokeColor=none;" vertex="1" parent="7026571954dc6520-1">
          <mxGeometry x="95" y="420" width="120" height="60" as="geometry" />
        </mxCell>
        <mxCell id="xlAAXu3U_xotaFrvBBW6-66" value="Lorem ipsum dolor sit amet consectetur adipiscing elit praesent mus, taciti mauris neque euismod suscipit quam dignissim cursus" style="rounded=0;whiteSpace=wrap;html=1;strokeColor=none;" vertex="1" parent="7026571954dc6520-1">
          <mxGeometry x="395" y="420" width="120" height="60" as="geometry" />
        </mxCell>
        <mxCell id="xlAAXu3U_xotaFrvBBW6-67" value="Lorem ipsum dolor sit amet consectetur adipiscing elit praesent mus, taciti mauris neque euismod suscipit quam dignissim cursus" style="rounded=0;whiteSpace=wrap;html=1;strokeColor=none;" vertex="1" parent="7026571954dc6520-1">
          <mxGeometry x="735" y="420" width="120" height="60" as="geometry" />
        </mxCell>
        <mxCell id="xlAAXu3U_xotaFrvBBW6-68" value="&#xa;&lt;span style=&quot;color: rgba(0, 0, 0, 0.8); font-family: &amp;quot;Source Sans Pro&amp;quot;, sans-serif; font-size: 12px; font-style: normal; font-variant-ligatures: normal; font-variant-caps: normal; letter-spacing: -0.0486px; orphans: 2; text-indent: 0px; text-transform: none; widows: 2; word-spacing: 0px; -webkit-text-stroke-width: 0px; background-color: rgb(255, 255, 255); text-decoration-thickness: initial; text-decoration-style: initial; text-decoration-color: initial; float: none; display: inline !important;&quot;&gt;Lorem ipsum dolor sit amet consectetur adipiscing elit praesent mus, taciti mauris neque euismod suscipit quam dignissim cursus&lt;/span&gt;&#xa;&#xa;" style="rounded=0;whiteSpace=wrap;html=1;strokeColor=none;fontSize=12;fontStyle=0;align=center;" vertex="1" parent="7026571954dc6520-1">
          <mxGeometry x="1025" y="420" width="120" height="60" as="geometry" />
        </mxCell>
      </root>
    </mxGraphModel>
  </diagram>
</mxfile>
